<svg width="56" height="56" viewBox="0 0 56 56" fill="none" xmlns="http://www.w3.org/2000/svg">
<path d="M47.5234 26.6766L26.8625 8.74453C26.7039 8.60781 26.5016 8.53125 26.2883 8.53125H21.4484C21.0438 8.53125 20.8578 9.03437 21.1641 9.29688L40.3156 25.9219H8.3125C8.07188 25.9219 7.875 26.1187 7.875 26.3594V29.6406C7.875 29.8813 8.07188 30.0781 8.3125 30.0781H40.3102L21.1586 46.7031C20.8523 46.9711 21.0383 47.4688 21.443 47.4688H26.4469C26.5508 47.4688 26.6547 47.4305 26.7313 47.3594L47.5234 29.3234C47.7128 29.1588 47.8646 28.9555 47.9686 28.7272C48.0726 28.4989 48.1264 28.2509 48.1264 28C48.1264 27.7491 48.0726 27.5011 47.9686 27.2728C47.8646 27.0445 47.7128 26.8412 47.5234 26.6766V26.6766Z" fill="white"/>
</svg>
